<svg width="16" height="16" viewBox="0 0 16 16" fill="none" xmlns="http://www.w3.org/2000/svg">
<g opacity="0.5">
<path d="M2.66608 4.66667C2.66608 4.29848 2.96455 4 3.33274 4H3.99941C4.3676 4 4.66608 4.29848 4.66608 4.66667C4.66608 5.03486 4.3676 5.33333 3.99941 5.33333H3.33274C2.96455 5.33333 2.66608 5.03486 2.66608 4.66667ZM5.99941 4.66667C5.99941 4.29848 6.29789 4 6.66608 4H12.6661C13.0343 4 13.3327 4.29848 13.3327 4.66667C13.3327 5.03486 13.0343 5.33333 12.6661 5.33333H6.66608C6.29789 5.33333 5.99941 5.03486 5.99941 4.66667ZM2.66608 8C2.66608 7.63181 2.96455 7.33333 3.33274 7.33333H3.99941C4.3676 7.33333 4.66608 7.63181 4.66608 8C4.66608 8.36819 4.3676 8.66667 3.99941 8.66667H3.33274C2.96455 8.66667 2.66608 8.36819 2.66608 8ZM5.99941 8C5.99941 7.63181 6.29789 7.33333 6.66608 7.33333H12.6661C13.0343 7.33333 13.3327 7.63181 13.3327 8C13.3327 8.36819 13.0343 8.66667 12.6661 8.66667H6.66608C6.29789 8.66667 5.99941 8.36819 5.99941 8ZM2.66608 11.3333C2.66608 10.9651 2.96455 10.6667 3.33274 10.6667H3.99941C4.3676 10.6667 4.66608 10.9651 4.66608 11.3333C4.66608 11.7015 4.3676 12 3.99941 12H3.33274C2.96455 12 2.66608 11.7015 2.66608 11.3333ZM5.99941 11.3333C5.99941 10.9651 6.29789 10.6667 6.66608 10.6667H12.6661C13.0343 10.6667 13.3327 10.9651 13.3327 11.3333C13.3327 11.7015 13.0343 12 12.6661 12H6.66608C6.29789 12 5.99941 11.7015 5.99941 11.3333Z" fill="white"/>
</g>
</svg>
